<svg width="11" height="7" viewBox="0 0 11 7" fill="none" xmlns="http://www.w3.org/2000/svg">
<path opacity="0.6" d="M9.31429 0.31045L5.49487 4.43531L1.67544 0.31045C1.58431 0.212026 1.47611 0.133952 1.35704 0.0806846C1.23796 0.0274176 1.11034 3.89332e-07 0.981454 4.0062e-07C0.852567 4.11908e-07 0.724943 0.0274176 0.605867 0.0806846C0.486791 0.133952 0.378596 0.212026 0.287459 0.310451C0.196323 0.408875 0.124031 0.525722 0.0747074 0.65432C0.0253853 0.782918 -5.30491e-07 0.920748 -5.18345e-07 1.05994C-5.06198e-07 1.19914 0.0253854 1.33697 0.0747075 1.46556C0.124031 1.59416 0.196323 1.71101 0.287459 1.80943L4.8058 6.6891C4.89687 6.78765 5.00504 6.86584 5.12412 6.91919C5.24321 6.97254 5.37087 7 5.49979 7C5.62871 7 5.75637 6.97254 5.87546 6.91919C5.99454 6.86584 6.10271 6.78765 6.19378 6.6891L10.7121 1.80943C10.8034 1.71108 10.8758 1.59426 10.9252 1.46565C10.9746 1.33704 11 1.19917 11 1.05994C11 0.920707 10.9746 0.782841 10.9252 0.654233C10.8758 0.525625 10.8034 0.408802 10.7121 0.31045C10.3282 -0.0935315 9.6982 -0.104163 9.31429 0.31045Z" fill="white"/>
</svg>
