<svg width="157" height="19" viewBox="0 0 157 19" fill="none" xmlns="http://www.w3.org/2000/svg">
<path d="M12.628 16.4457C12.628 16.4457 13.0431 16.4 13.2557 16.1737C13.4503 15.9664 13.4435 15.5752 13.4435 15.5752C13.4435 15.5752 13.4177 13.7485 14.2737 13.4788C15.1174 13.2136 16.2007 15.2453 17.3504 16.0266C18.2189 16.6173 18.8781 16.488 18.8781 16.488L21.9503 16.4457C21.9503 16.4457 23.5567 16.3476 22.7951 15.096C22.7321 14.9935 22.3507 14.1698 20.5115 12.478C18.5845 10.707 18.8432 10.9935 21.1628 7.92965C22.5757 6.06395 23.1404 4.92491 22.9638 4.43787C22.7962 3.972 21.7568 4.09571 21.7568 4.09571L18.2987 4.11689C18.2987 4.11689 18.0422 4.08234 17.8521 4.1949C17.6665 4.30524 17.5462 4.56269 17.5462 4.56269C17.5462 4.56269 16.9994 6.00599 16.2694 7.23419C14.7293 9.82432 14.114 9.96141 13.862 9.80092C13.2759 9.42533 13.4222 8.29409 13.4222 7.49053C13.4222 4.97952 13.8069 3.93299 12.6741 3.66216C12.2983 3.57189 12.0216 3.51282 11.0598 3.50279C9.82575 3.49053 8.78182 3.50725 8.1901 3.79368C7.79638 3.98426 7.49265 4.41 7.67826 4.43452C7.90662 4.46462 8.42409 4.57272 8.69857 4.94274C9.05292 5.42087 9.04055 6.49304 9.04055 6.49304C9.04055 6.49304 9.24416 9.44873 8.5647 9.81541C8.09898 10.0673 7.46002 9.5535 6.08648 7.20298C5.3834 5.9993 4.85243 4.66857 4.85243 4.66857C4.85243 4.66857 4.75006 4.42004 4.5667 4.28629C4.34509 4.12469 4.03573 4.07454 4.03573 4.07454L0.74981 4.09571C0.74981 4.09571 0.255965 4.10909 0.0748511 4.32196C-0.0860141 4.51031 0.0624768 4.90151 0.0624768 4.90151C0.0624768 4.90151 2.63519 10.8653 5.54876 13.8711C8.22048 16.6262 11.2533 16.4457 11.2533 16.4457H12.628Z" fill="white"/>
<path fill-rule="evenodd" clip-rule="evenodd" d="M38 9.22517C38 4.41409 41.9252 0.5 46.7499 0.5C51.5746 0.5 55.4998 4.41409 55.4998 9.22517C55.4998 9.90674 55.4429 10.4585 55.3155 11.0123L55.3136 11.0215C55.3133 11.0231 55.2501 11.2784 55.2151 11.3898C54.9989 12.0795 54.6074 12.6539 54.0828 13.0509C53.5741 13.4361 52.9434 13.6482 52.3069 13.6482C52.2283 13.6482 52.1491 13.645 52.0715 13.6388C51.1676 13.5664 50.3728 13.0921 49.8855 12.3358C49.0473 13.1762 47.9352 13.6386 46.7499 13.6386C44.3095 13.6386 42.324 11.6588 42.324 9.22517C42.324 6.79163 44.3095 4.81184 46.7499 4.81184C49.1903 4.81184 51.1757 6.79163 51.1757 9.22517V10.6479C51.1794 11.478 51.738 11.8173 52.2153 11.8557C52.6901 11.8922 53.322 11.6164 53.5421 10.7163C53.6507 10.2226 53.7059 9.7208 53.7059 9.22517C53.7059 5.40044 50.5854 2.28883 46.7499 2.28883C42.9143 2.28883 39.7939 5.40044 39.7939 9.22517C39.7939 13.0499 42.9143 16.1616 46.7499 16.1616C48.085 16.1616 49.3835 15.7813 50.505 15.0619L50.525 15.049L51.7038 16.4156L51.6785 16.4329C50.2218 17.4257 48.5175 17.9505 46.7499 17.9505C41.9252 17.9505 38 14.0363 38 9.22517ZM46.7498 11.8497C48.2011 11.8497 49.3818 10.6724 49.3818 9.22516C49.3818 7.77802 48.2011 6.60071 46.7498 6.60071C45.2986 6.60071 44.1179 7.77802 44.1179 9.22516C44.1179 10.6724 45.2986 11.8497 46.7498 11.8497Z" fill="white"/>
<path d="M80.1072 6.49022L80.1478 7.13901L79.4702 7.05957C77.0037 6.75503 74.8489 5.72227 73.0193 3.98775L72.1248 3.12711L71.8945 3.76266C71.4066 5.1794 71.7183 6.67559 72.7347 7.68188C73.2768 8.23798 73.1548 8.31743 72.2197 7.98641C71.8945 7.88049 71.6099 7.80104 71.5828 7.84077C71.4879 7.93345 71.8131 9.13835 72.0706 9.61501C72.423 10.277 73.1413 10.9258 73.9273 11.3098L74.5914 11.6143L73.8053 11.6276C73.0464 11.6276 73.0193 11.6408 73.1006 11.9189C73.3717 12.7795 74.4423 13.6931 75.6349 14.0903L76.4752 14.3684L75.7433 14.7921C74.6591 15.4012 73.3852 15.7454 72.1113 15.7719C71.5014 15.7851 71 15.8381 71 15.8778C71 16.0102 72.6534 16.7517 73.6156 17.043C76.5023 17.9036 79.931 17.5329 82.506 16.0632C84.3355 15.0172 86.1651 12.9384 87.0189 10.9258C87.4797 9.85334 87.9405 7.89373 87.9405 6.95364C87.9405 6.34458 87.9811 6.26513 88.74 5.5369C89.1873 5.1132 89.6074 4.64978 89.6887 4.51737C89.8242 4.2658 89.8107 4.2658 89.1195 4.49089C87.9676 4.88811 87.8049 4.83514 88.3741 4.23932C88.7943 3.81562 89.2957 3.04766 89.2957 2.82257C89.2957 2.78285 89.0924 2.84905 88.862 2.96822C88.6181 3.10062 88.076 3.29923 87.6694 3.4184L86.9376 3.64349L86.2735 3.20655C85.9076 2.96822 85.3926 2.70341 85.1216 2.62396C84.4304 2.43859 83.3733 2.46507 82.7499 2.67692C81.0559 3.27275 79.9852 4.80866 80.1072 6.49022Z" fill="white"/>
<path fill-rule="evenodd" clip-rule="evenodd" d="M114.494 17.8453H114.491C112.998 17.8448 111.531 17.4703 110.228 16.7597L105.5 18L106.765 13.378C105.985 12.0253 105.574 10.4909 105.575 8.9189C105.577 4.00106 109.578 0 114.494 0C116.88 0.0010298 119.12 0.929916 120.804 2.61588C122.488 4.30176 123.415 6.54271 123.414 8.92594C123.412 13.8427 119.412 17.8433 114.494 17.8453ZM110.447 15.1449L110.718 15.3056C111.856 15.9811 113.161 16.3385 114.491 16.339H114.494C118.581 16.339 121.906 13.0132 121.908 8.92543C121.909 6.94451 121.138 5.08194 119.739 3.68063C118.339 2.27932 116.478 1.50722 114.497 1.50653C110.408 1.50653 107.082 4.83195 107.081 8.91943C107.08 10.3202 107.472 11.6845 108.214 12.8648L108.391 13.1453L107.642 15.881L110.447 15.1449ZM118.683 10.8463C118.838 10.9214 118.943 10.9722 118.988 11.047C119.044 11.1399 119.044 11.5861 118.858 12.1068C118.672 12.6274 117.782 13.1025 117.354 13.1665C116.97 13.2239 116.484 13.2478 115.95 13.0782C115.626 12.9755 115.211 12.8383 114.679 12.6087C112.59 11.7065 111.178 9.68151 110.911 9.29879C110.893 9.27198 110.879 9.25322 110.872 9.24348L110.87 9.24109C110.752 9.08372 109.962 8.02929 109.962 6.938C109.962 5.91142 110.466 5.37333 110.699 5.12565C110.714 5.10868 110.729 5.09308 110.742 5.07877C110.946 4.85565 111.188 4.79987 111.336 4.79987C111.485 4.79987 111.634 4.80124 111.764 4.80776C111.78 4.80856 111.796 4.80847 111.814 4.80837C111.943 4.8076 112.105 4.80666 112.265 5.19033C112.327 5.33799 112.416 5.5569 112.511 5.78778C112.703 6.25466 112.915 6.7705 112.952 6.84515C113.008 6.95671 113.045 7.08681 112.971 7.23562C112.96 7.25793 112.949 7.27898 112.939 7.2991C112.884 7.41301 112.843 7.49681 112.748 7.60738C112.711 7.65086 112.672 7.69773 112.634 7.7446C112.557 7.83797 112.48 7.93134 112.414 7.99785C112.302 8.10898 112.186 8.22955 112.316 8.45268C112.446 8.6758 112.893 9.40559 113.556 9.99657C114.268 10.6318 114.887 10.9003 115.201 11.0364C115.262 11.063 115.312 11.0845 115.348 11.1027C115.571 11.2143 115.701 11.1957 115.831 11.047C115.961 10.8982 116.388 10.3962 116.536 10.1731C116.685 9.95006 116.834 9.98721 117.038 10.0616C117.242 10.136 118.338 10.6751 118.561 10.7866C118.604 10.8084 118.645 10.8281 118.683 10.8463Z" fill="white"/>
<path fill-rule="evenodd" clip-rule="evenodd" d="M148.001 0.5C145.557 0.5 145.25 0.510688 144.29 0.554376C143.332 0.598251 142.678 0.74994 142.105 0.972505C141.513 1.20238 141.011 1.50989 140.511 2.01033C140.01 2.51058 139.703 3.01271 139.472 3.60447C139.249 4.17691 139.097 4.83111 139.054 5.78887C139.011 6.74888 139 7.05582 139 9.50009C139 11.9444 139.011 12.2502 139.054 13.2102C139.098 14.1683 139.25 14.8223 139.473 15.3946C139.703 15.9865 140.01 16.4887 140.511 16.9889C141.011 17.4895 141.513 17.7978 142.104 18.0277C142.677 18.2502 143.331 18.4019 144.289 18.4458C145.249 18.4895 145.556 18.5002 148 18.5002C150.444 18.5002 150.75 18.4895 151.71 18.4458C152.668 18.4019 153.323 18.2502 153.896 18.0277C154.487 17.7978 154.989 17.4895 155.489 16.9889C155.989 16.4887 156.297 15.9865 156.527 15.3948C156.749 14.8223 156.901 14.1681 156.946 13.2104C156.989 12.2504 157 11.9444 157 9.50009C157 7.05582 156.989 6.74906 156.946 5.78905C156.901 4.83092 156.749 4.17691 156.527 3.60466C156.297 3.01271 155.989 2.51058 155.489 2.01033C154.988 1.5097 154.487 1.20219 153.895 0.972505C153.321 0.74994 152.667 0.598251 151.709 0.554376C150.749 0.510688 150.443 0.5 147.998 0.5H148.001ZM147.701 2.12179H147.701L148.001 2.12188C150.404 2.12188 150.689 2.1305 151.638 2.17363C152.515 2.21375 152.991 2.36038 153.309 2.48357C153.729 2.6467 154.028 2.8417 154.343 3.1567C154.658 3.47171 154.853 3.77171 155.016 4.19171C155.14 4.50859 155.286 4.98485 155.326 5.86235C155.369 6.81111 155.379 7.09612 155.379 9.49802C155.379 11.8999 155.369 12.1849 155.326 13.1337C155.286 14.0112 155.14 14.4874 155.016 14.8043C154.853 15.2243 154.658 15.5234 154.343 15.8382C154.028 16.1532 153.729 16.3482 153.309 16.5113C152.992 16.6351 152.515 16.7813 151.638 16.8215C150.689 16.8646 150.404 16.874 148.001 16.874C145.598 16.874 145.313 16.8646 144.364 16.8215C143.486 16.781 143.01 16.6343 142.693 16.5112C142.273 16.348 141.973 16.153 141.658 15.838C141.343 15.523 141.148 15.2238 140.984 14.8036C140.861 14.4867 140.714 14.0104 140.674 13.1329C140.631 12.1842 140.623 11.8992 140.623 9.49577C140.623 7.09237 140.631 6.80886 140.674 5.86011C140.714 4.9826 140.861 4.50634 140.984 4.18909C141.147 3.76908 141.343 3.46908 141.658 3.15408C141.973 2.83907 142.273 2.64407 142.693 2.48057C143.01 2.35682 143.486 2.21057 144.364 2.17025C145.194 2.13275 145.516 2.1215 147.193 2.11963V2.12188C147.35 2.12163 147.519 2.12171 147.701 2.12179H147.701H147.701ZM151.725 4.69598C151.725 4.09953 152.209 3.61634 152.805 3.61634V3.61597C153.401 3.61597 153.885 4.09972 153.885 4.69598C153.885 5.29223 153.401 5.77599 152.805 5.77599C152.209 5.77599 151.725 5.29223 151.725 4.69598ZM148.001 4.87811C145.448 4.87821 143.379 6.94763 143.379 9.50004C143.379 12.0525 145.448 14.121 148.001 14.121C150.553 14.121 152.622 12.0525 152.622 9.50004C152.622 6.94757 150.553 4.87811 148.001 4.87811ZM151.001 9.50009C151.001 7.84314 149.658 6.50006 148.001 6.50006C146.344 6.50006 145.001 7.84314 145.001 9.50009C145.001 11.1569 146.344 12.5001 148.001 12.5001C149.658 12.5001 151.001 11.1569 151.001 9.50009Z" fill="white"/>
</svg>
