<?xml version="1.0" encoding="iso-8859-1"?>
<!-- Uploaded to: SVG Repo, www.svgrepo.com, Generator: SVG Repo Mixer Tools -->
<svg height="800px" width="800px" version="1.1" id="Layer_1" xmlns="http://www.w3.org/2000/svg" xmlns:xlink="http://www.w3.org/1999/xlink" 
	 viewBox="0 0 512 512" xml:space="preserve">
<path style="fill:#72CCC5;" d="M384.267,221.795c0-71.449-58.419-129.254-130.098-128.254
	c-69.697,0.973-126.313,58.32-126.436,128.024c-0.081,46.222,24.29,86.752,60.896,109.391c10.025,6.2,16.064,17.204,16.064,28.991
	v49.975h102.614v-50.181c0-11.836,6.261-22.69,16.312-28.939C360.027,308.171,384.267,267.817,384.267,221.795z"/>
<path style="fill:#11BBA3;" d="M222.833,330.955c-36.606-22.638-60.977-63.168-60.896-109.391
	c0.113-64.548,48.675-118.493,111.206-126.893c-6.196-0.827-12.531-1.221-18.975-1.131c-69.697,0.973-126.313,58.32-126.435,128.024
	c-0.081,46.222,24.29,86.752,60.896,109.391c10.024,6.2,16.064,17.204,16.064,28.991v49.975h34.205v-49.975
	C238.898,348.159,232.858,337.155,222.833,330.955z"/>
<g>
	<path style="fill:#66BF00;" d="M247.449,144.835l-17.102,25.653l17.102,34.205h34.205l17.102,25.653l17.102-25.653l-8.551-25.653
		h25.653l17.102-25.653l5.153-12.883C331.693,111.827,295.984,93.528,256,93.528c-24.827,0-48.002,7.061-67.64,19.274l24.884,14.93
		L247.449,144.835z"/>
	<path style="fill:#66BF00;" d="M204.693,281.653H256l-17.102-34.205h-34.205l-25.653-25.653h-25.653l-24.612-16.409
		c-0.686,5.372-1.041,10.849-1.041,16.409c0,50.905,29.654,94.884,72.63,115.605l12.881-38.645L204.693,281.653z"/>
</g>
<g>
	<path style="fill:#58AB23;" d="M256,93.528c-24.827,0-48.002,7.061-67.64,19.274l18.922,11.353
		c18.287-15.574,40.957-26.136,65.845-29.482C267.523,93.926,261.808,93.528,256,93.528z"/>
	<path style="fill:#58AB23;" d="M161.941,221.795h-8.554l-24.612-16.409c-0.686,5.372-1.041,10.849-1.041,16.409
		c0,50.905,29.654,94.884,72.63,115.605l6.141-18.421C179.216,295.459,161.942,260.648,161.941,221.795z"/>
</g>
<path style="fill:#66BF00;" d="M384.212,225.468l-34.149,4.878l-34.205,42.756l17.102,25.653l4.435,22.174
	C365.133,298.128,383.13,263.915,384.212,225.468z"/>
<path style="fill:#B9873C;" d="M273.102,503.983h-34.205c-28.336,0-51.307-22.971-51.307-51.307v-68.409h136.818v68.409
	C324.409,481.013,301.439,503.983,273.102,503.983z"/>
<path style="fill:#A3682D;" d="M221.795,452.676v-68.409h-34.205v68.409c0,28.336,22.971,51.307,51.307,51.307h34.205
	C244.766,503.983,221.795,481.013,221.795,452.676z"/>
<path d="M324.038,103.686c-3.834-2.214-8.738-0.899-10.95,2.935c-2.214,3.834-0.9,8.737,2.935,10.951
	c11.389,6.575,21.448,14.893,29.932,24.495l-3.027,7.568l-14.259,21.389h-21.363c-5.375,0-9.309,5.442-7.605,10.552l7.311,21.934
	l-8.257,12.385l-10.432-15.648c-1.487-2.23-3.989-3.57-6.67-3.57h-29.249l-12.806-25.612l14.522-21.782
	c2.638-3.956,1.159-9.495-3.085-11.617l-33.93-16.965l-12.506-7.504c15.123-7.23,31.956-11.392,49.682-11.639
	c11.468-0.164,22.85,1.291,33.792,4.31c4.265,1.179,8.682-1.328,9.861-5.595c1.179-4.268-1.326-8.683-5.595-9.861
	c-12.403-3.424-25.287-5.058-38.28-4.887c-73.947,1.031-134.212,62.051-134.343,136.025c-0.083,47.671,24.101,91.119,64.696,116.223
	c7.566,4.679,12.264,13.174,12.264,22.172v16.305h-9.086c-4.428,0-8.017,3.589-8.017,8.017v68.409
	c0,32.711,26.612,59.324,59.324,59.324h34.205c32.711,0,59.324-26.612,59.324-59.324v-68.409c0-4.427-3.588-8.017-8.017-8.017
	h-9.086v-16.511c0-8.981,4.684-17.254,12.529-22.13c40.345-25.077,64.432-68.372,64.432-115.814
	C392.284,173.242,366.133,127.985,324.038,103.686z M135.749,221.578c0.001-0.631,0.016-1.259,0.028-1.888l13.162,8.775
	c1.317,0.878,2.865,1.347,4.447,1.347h22.333l23.305,23.305c1.504,1.504,3.542,2.348,5.669,2.348h29.249l9.086,18.171h-38.336
	c-5.847,0-9.792,6.362-7.17,11.602l7.065,14.133l-8.904,26.714c-0.919-0.682-1.859-1.341-2.839-1.948
	C157.019,301.982,135.676,263.642,135.749,221.578z M316.392,444.66H195.608v-18.171h120.785V444.66z M273.102,495.967h-34.205
	c-21.131,0-38.762-15.222-42.533-35.273h119.272C311.865,480.745,294.233,495.967,273.102,495.967z M316.392,410.455H195.608
	v-18.171h120.785V410.455z M319.389,323.992c-12.585,7.823-20.098,21.187-20.098,35.747v16.511h-86.58v-16.305
	c0-6.925-1.751-13.663-4.897-19.646c0.048-0.124,0.112-0.236,0.155-0.364l12.881-38.645c1.384-4.155-1.4-8.05-3.184-11.621H256
	c5.847,0,9.792-6.362,7.17-11.602l-17.102-34.205c-1.359-2.716-4.133-4.432-7.17-4.432h-30.885l-23.305-23.305
	c-1.504-1.504-3.542-2.348-5.669-2.348h-23.226l-18.332-12.221c5.634-32.728,24.669-61.123,51.209-79.208l20.43,12.258
	c0.175,0.106,0.356,0.204,0.539,0.296l26.082,13.042l-12.064,18.097c-1.596,2.393-1.787,5.459-0.5,8.032l17.102,34.205
	c1.359,2.716,4.133,4.432,7.17,4.432h29.914l14.722,22.083c3.118,4.677,10.222,4.679,13.34,0l17.102-25.653
	c1.372-2.059,1.717-4.635,0.935-6.982l-5.033-15.101h14.532c2.681,0,5.184-1.339,6.67-3.57l17.102-25.653
	c0.178-0.268,0.336-0.549,0.481-0.837c11.626,18.175,18.372,39.399,18.981,61.519l-27.266,3.895
	c-2.019,0.289-3.852,1.336-5.126,2.929l-34.205,42.756c-2.181,2.726-2.346,6.55-0.41,9.454l16.223,24.334l3.161,15.801
	C325.626,319.908,322.566,322.017,319.389,323.992z M342.468,305.414l-1.646-8.232c-0.205-1.026-0.609-2.003-1.191-2.874
	l-13.851-20.776l28.56-35.699l21.207-3.029C372.68,261.632,361.01,286.328,342.468,305.414z"/>
<path d="M256,58.789c4.428,0,8.017-3.589,8.017-8.017V8.017C264.017,3.589,260.428,0,256,0c-4.428,0-8.017,3.589-8.017,8.017v42.756
	C247.983,55.2,251.572,58.789,256,58.789z"/>
<path d="M159.27,78.839c2.356,4.082,7.897,5.242,11.7,2.446c3.246-2.388,4.199-6.975,2.186-10.462l-21.378-37.028
	c-2.213-3.835-7.119-5.149-10.951-2.934c-3.834,2.214-5.148,7.117-2.934,10.951L159.27,78.839z"/>
<path d="M104.493,133.617l-37.028-21.378c-3.837-2.214-8.738-0.901-10.951,2.934c-2.214,3.834-0.9,8.737,2.934,10.951l37.028,21.378
	c4.091,2.361,9.463,0.583,11.355-3.733C109.449,140.079,107.98,135.63,104.493,133.617z"/>
<path d="M84.443,230.347c0-4.427-3.588-8.017-8.017-8.017H33.67c-4.428,0-8.017,3.589-8.017,8.017s3.588,8.017,8.017,8.017h42.756
	C80.854,238.363,84.443,234.774,84.443,230.347z"/>
<path d="M96.476,313.191l-37.028,21.378c-3.488,2.014-4.956,6.461-3.338,10.153c1.891,4.314,7.265,6.095,11.355,3.733l37.028-21.378
	c3.834-2.214,5.148-7.117,2.934-10.951C105.212,312.291,100.309,310.976,96.476,313.191z"/>
<path d="M452.551,334.569l-37.028-21.378c-3.837-2.215-8.738-0.901-10.951,2.934c-2.214,3.834-0.9,8.737,2.934,10.951l37.028,21.378
	c4.091,2.361,9.463,0.583,11.355-3.733C457.508,341.03,456.038,336.582,452.551,334.569z"/>
<path d="M478.33,222.33h-42.756c-4.428,0-8.017,3.589-8.017,8.017s3.588,8.017,8.017,8.017h42.756c4.428,0,8.017-3.589,8.017-8.017
	S482.758,222.33,478.33,222.33z"/>
<path d="M411.523,148.577c1.36,0,2.74-0.346,4.001-1.075l37.028-21.378c3.834-2.214,5.148-7.117,2.934-10.951
	c-2.215-3.835-7.119-5.148-10.951-2.934l-37.028,21.378c-3.147,1.817-4.719,5.735-3.678,9.219
	C404.826,146.174,408.037,148.577,411.523,148.577z"/>
<path d="M341.779,81.774c3.787,2.187,8.768,0.848,10.951-2.934l21.378-37.028c2.214-3.834,0.9-8.737-2.934-10.951
	c-3.837-2.216-8.738-0.9-10.951,2.934l-21.378,37.028C336.631,74.657,337.945,79.56,341.779,81.774z"/>
</svg>