<?xml version="1.0" encoding="iso-8859-1"?>
<!-- Uploaded to: SVG Repo, www.svgrepo.com, Generator: SVG Repo Mixer Tools -->
<svg height="800px" width="800px" version="1.1" id="Layer_1" xmlns="http://www.w3.org/2000/svg" xmlns:xlink="http://www.w3.org/1999/xlink" 
	 viewBox="0 0 512 512" xml:space="preserve">
<g>
	<path style="fill:#E8E6D9;" d="M341.287,256.607l-94.063,25.653c-7.441,2.029-12.602,8.787-12.602,16.499v102.614
		c0,9.445,7.658,17.102,17.102,17.102c9.445,0,17.102-7.658,17.102-17.102v-89.551l81.46-22.217
		c9.112-2.485,14.485-11.887,11.999-20.999C359.802,259.494,350.403,254.122,341.287,256.607z"/>
	<path style="fill:#E8E6D9;" d="M341.287,188.198l-188.125,51.307c-9.112,2.485-14.485,11.887-11.999,20.999
		c2.074,7.606,8.968,12.607,16.49,12.607c1.489,0,3.004-0.197,4.51-0.607l188.125-51.307c9.112-2.485,14.485-11.887,11.999-20.999
		C359.802,191.085,350.403,185.714,341.287,188.198z"/>
	<path style="fill:#E8E6D9;" d="M341.287,119.789l-188.125,51.307c-9.112,2.485-14.485,11.887-11.999,20.999
		c2.074,7.606,8.968,12.607,16.49,12.607c1.489,0,3.004-0.197,4.51-0.607l188.125-51.307c9.112-2.485,14.485-11.887,11.999-20.999
		C359.802,122.676,350.403,117.303,341.287,119.789z"/>
	<path style="fill:#E8E6D9;" d="M157.652,136.292c1.489,0,3.004-0.197,4.51-0.607l188.125-51.307
		c9.112-2.485,14.485-11.887,11.999-20.999c-2.484-9.112-11.884-14.485-20.999-11.999l-188.125,51.307
		c-9.112,2.485-14.485,11.887-11.999,20.999C143.236,131.292,150.13,136.292,157.652,136.292z"/>
	<path style="fill:#E8E6D9;" d="M157.652,67.883c1.489,0,3.004-0.197,4.51-0.607l94.063-25.653
		c9.112-2.485,14.485-11.887,11.999-20.999c-2.484-9.112-11.885-14.485-20.999-11.999l-94.063,25.653
		c-9.112,2.485-14.485,11.887-11.999,20.999C143.236,62.883,150.13,67.883,157.652,67.883z"/>
</g>
<g>
	<path style="fill:#D1CDB2;" d="M362.081,199.571l-220.956,60.762c0.015,0.057,0.021,0.113,0.037,0.17
		c2.074,7.606,8.968,12.607,16.49,12.607c1.489,0,3.004-0.197,4.51-0.607l188.125-51.307c9.112-2.485,14.485-11.887,11.999-20.999
		C362.228,199.982,362.148,199.782,362.081,199.571z"/>
	<path style="fill:#D1CDB2;" d="M362.081,131.162l-220.956,60.762c0.015,0.057,0.021,0.113,0.037,0.17
		c2.074,7.606,8.968,12.607,16.49,12.607c1.489,0,3.004-0.197,4.51-0.607l188.125-51.307c9.112-2.485,14.485-11.887,11.999-20.999
		C362.228,131.573,362.148,131.372,362.081,131.162z"/>
	<path style="fill:#D1CDB2;" d="M362.081,62.753l-220.956,60.762c0.015,0.057,0.021,0.113,0.037,0.17
		c2.074,7.606,8.968,12.607,16.49,12.607c1.489,0,3.004-0.197,4.51-0.607l188.125-51.307c9.112-2.485,14.485-11.887,11.999-20.999
		C362.228,63.164,362.148,62.963,362.081,62.753z"/>
	<path style="fill:#D1CDB2;" d="M268.083,20.192L141.125,55.106c0.015,0.057,0.021,0.113,0.037,0.17
		c2.074,7.606,8.968,12.607,16.49,12.607c1.489,0,3.004-0.197,4.51-0.607l94.063-25.653c9.112-2.485,14.485-11.887,11.999-20.999
		C268.183,20.476,268.127,20.338,268.083,20.192z"/>
	<path style="fill:#D1CDB2;" d="M362.118,268.091l-104.131,28.925c-3.702,1.028-6.263,4.398-6.263,8.239v113.22
		c9.445,0,17.102-7.658,17.102-17.102v-89.551l81.46-22.217c9.28-2.53,14.681-12.235,11.854-21.502
		C362.133,268.099,362.127,268.096,362.118,268.091z"/>
</g>
<path style="fill:#B9873C;" d="M285.929,503.983H217.52c-9.446,0-17.102-7.656-17.102-17.102v-76.96h102.614v76.96
	C303.031,496.327,295.375,503.983,285.929,503.983z"/>
<path style="fill:#A3682D;" d="M226.071,486.881v-76.96h-25.653v76.96c0,9.445,7.656,17.102,17.102,17.102h25.653
	C233.727,503.983,226.071,496.326,226.071,486.881z"/>
<path style="fill:#66BF00;" d="M123.145,307.307c0,0,6.047,78.605,36.279,108.838c24.186,24.186,58.569,26.083,78.605,6.047
	s18.14-54.419-6.047-78.605C201.75,313.354,123.145,307.307,123.145,307.307z"/>
<path style="fill:#58AB23;" d="M246.582,405.089c-20.036,20.036-54.42,18.139-78.605-6.047
	c-21.035-21.035-30.36-65.478-34.087-90.578c-6.656-0.842-10.743-1.158-10.743-1.158s6.047,78.605,36.279,108.838
	c24.186,24.186,58.569,26.083,78.605,6.047c5.942-5.942,9.94-13.152,12.014-20.977C248.973,402.557,247.82,403.852,246.582,405.089z
	"/>
<path style="fill:#66BF00;" d="M380.304,307.307c0,0-6.047,78.605-36.279,108.838c-24.186,24.186-58.569,26.083-78.605,6.047
	s-18.14-54.419,6.047-78.605C301.698,313.354,380.304,307.307,380.304,307.307z"/>
<path style="fill:#58AB23;" d="M369.56,308.465c-3.728,25.101-13.052,69.544-34.087,90.578
	c-24.186,24.186-58.569,26.083-78.605,6.047c-1.239-1.239-2.392-2.533-3.463-3.875c2.075,7.825,6.071,15.035,12.014,20.977
	c20.036,20.036,54.419,18.139,78.605-6.047c30.233-30.233,36.279-108.838,36.279-108.838S376.216,307.622,369.56,308.465z"/>
<path d="M157.652,281.128c2.228,0,4.454-0.299,6.62-0.889l188.125-51.307c13.199-3.599,21.231-17.619,17.625-30.842
	c-3.643-13.361-17.479-21.267-30.842-17.626c0,0-0.001,0-0.002,0L151.053,231.77c-13.199,3.599-21.231,17.619-17.625,30.843
	C136.4,273.514,146.361,281.128,157.652,281.128z M149.773,251.497c1.204-2.107,3.156-3.619,5.497-4.257l188.125-51.307
	c4.838-1.315,9.839,1.543,11.156,6.375c1.305,4.782-1.6,9.854-6.374,11.156L160.053,264.77c-4.779,1.304-9.853-1.598-11.156-6.375
	C148.258,256.053,148.57,253.604,149.773,251.497z"/>
<path d="M157.652,212.717c2.228,0,4.454-0.299,6.62-0.889l188.125-51.307c13.199-3.599,21.231-17.619,17.625-30.842
	c-3.643-13.361-17.479-21.265-30.842-17.626c0,0-0.001,0-0.002,0L151.053,163.36c-13.199,3.599-21.231,17.619-17.625,30.843
	C136.4,205.105,146.361,212.717,157.652,212.717z M149.773,183.087c1.204-2.107,3.156-3.619,5.497-4.257l188.125-51.307
	c4.838-1.317,9.839,1.543,11.156,6.375c1.305,4.782-1.6,9.854-6.374,11.156L160.053,196.36c-4.779,1.304-9.853-1.598-11.156-6.375
	C148.258,187.643,148.57,185.193,149.773,183.087z"/>
<path d="M157.652,144.309c2.228,0,4.454-0.299,6.62-0.889l188.125-51.307c13.199-3.599,21.231-17.619,17.625-30.842
	c-3.643-13.361-17.481-21.265-30.843-17.625L215.41,77.4c-4.272,1.165-6.791,5.572-5.626,9.843c1.165,4.272,5.574,6.791,9.843,5.626
	l123.767-33.755c4.831-1.316,9.839,1.541,11.157,6.375c1.305,4.782-1.6,9.854-6.374,11.156l-188.125,51.307
	c-4.779,1.304-9.853-1.598-11.156-6.375c-0.639-2.341-0.327-4.791,0.877-6.899c1.204-2.108,3.156-3.619,5.498-4.257l30.152-8.224
	c4.271-1.165,6.79-5.572,5.625-9.843c-1.164-4.271-5.57-6.791-9.843-5.625l-30.152,8.224c-13.199,3.599-21.231,17.619-17.625,30.843
	C136.4,136.695,146.361,144.309,157.652,144.309z"/>
<path d="M157.652,75.9c2.228,0,4.454-0.299,6.619-0.889l94.063-25.653c13.199-3.599,21.231-17.619,17.625-30.842
	c-3.643-13.363-17.48-21.271-30.843-17.626l-94.063,25.653c-13.199,3.599-21.231,17.619-17.625,30.843
	C136.4,68.286,146.361,75.9,157.652,75.9z M149.773,46.269c1.204-2.107,3.156-3.619,5.498-4.257l94.062-25.653
	c4.775-1.3,9.855,1.602,11.157,6.375c1.305,4.782-1.601,9.854-6.375,11.156l-94.063,25.653c-4.779,1.304-9.853-1.598-11.156-6.375
	C148.258,50.826,148.57,48.376,149.773,46.269z"/>
<path d="M379.688,299.314c-0.826,0.064-20.506,1.618-44.232,6.976c-4.319,0.976-7.029,5.266-6.054,9.586
	c0.976,4.319,5.266,7.032,9.586,6.054c12.788-2.888,24.507-4.628,32.285-5.596c-2.665,21.337-11.129,72.356-32.917,94.144
	c-18.228,18.23-43.522,22.369-60.988,11.104l15.558-15.558h32.958c4.427,0,8.017-3.589,8.017-8.017c0-4.427-3.589-8.017-8.017-8.017
	h-16.925l34.688-34.688c3.131-3.131,3.131-8.207,0-11.337c-3.131-3.131-8.207-3.131-11.337,0l-34.688,34.688v-16.926
	c0-4.427-3.589-8.017-8.017-8.017s-8.017,3.589-8.017,8.017v32.959l-15.558,15.558c-11.264-17.466-7.126-42.759,11.103-60.988
	c6.879-6.879,17.454-13.063,31.429-18.381c4.139-1.574,6.217-6.206,4.642-10.344c-1.574-4.139-6.206-6.217-10.344-4.642
	c-10.145,3.86-18.844,8.23-26.018,13.058v-11.001l75.553-20.605c13.199-3.599,21.231-17.619,17.625-30.842
	c-3.643-13.361-17.481-21.265-30.843-17.625l-94.063,25.653c-10.898,2.97-18.51,12.936-18.51,24.232v30.204
	c-36.095-24.236-99.853-29.419-102.845-29.65c-4.827-0.362-8.98,3.775-8.608,8.608c0.257,3.331,6.641,81.93,38.604,113.892
	c11.355,11.356,24.952,18.371,38.645,20.945v44.123c0,13.851,11.268,25.119,25.119,25.119h68.409
	c13.851,0,25.119-11.268,25.119-25.119v-44.123c13.693-2.575,27.291-9.59,38.645-20.945
	c31.962-31.962,38.348-110.562,38.604-113.892C388.668,303.092,384.515,298.947,379.688,299.314z M208.434,460.693h86.58v9.62
	h-86.58V460.693z M208.434,444.66v-0.934c13.137-0.929,25.563-6.162,35.265-15.865c3.148-3.148,5.811-6.589,8.025-10.24
	c2.215,3.651,4.878,7.092,8.025,10.24c9.703,9.703,22.127,14.937,35.265,15.866v0.933H208.434z M242.639,298.76
	c0-4.085,2.753-7.69,6.694-8.765l94.063-25.653c4.832-1.315,9.839,1.541,11.157,6.375c1.305,4.782-1.6,9.854-6.375,11.156
	l-81.46,22.217c-3.488,0.951-5.907,4.12-5.907,7.735v30.044c0,0.465,0.048,0.918,0.124,1.362c-3.644,4.348-6.716,8.949-9.21,13.7
	c-2.483-4.73-5.541-9.311-9.164-13.643c0.046-0.348,0.078-0.701,0.078-1.061V298.76H242.639z M132.178,316.339
	c21.34,2.665,72.351,11.13,94.137,32.916c18.229,18.229,22.368,43.522,11.103,60.988l-15.558-15.558v-32.959
	c0-4.427-3.589-8.017-8.017-8.017s-8.017,3.589-8.017,8.017v16.926l-34.688-34.688c-3.088-3.088-8.249-3.088-11.337,0
	c-3.089,3.088-3.089,8.249,0,11.337l34.688,34.688h-16.926c-4.427,0-8.017,3.589-8.017,8.017c0,4.427,3.589,8.017,8.017,8.017
	h32.958l15.558,15.558c-17.466,11.264-42.758,7.126-60.988-11.104C143.308,388.691,134.843,337.68,132.178,316.339z
	 M285.929,495.967H217.52c-5.01,0-9.086-4.076-9.086-9.086v-0.534h86.58v0.534C295.015,491.891,290.939,495.967,285.929,495.967z"/>
<path d="M431.299,24.585c4.427,0,8.017-3.589,8.017-8.017V8.017c0-4.427-3.589-8.017-8.017-8.017c-4.427,0-8.017,3.589-8.017,8.017
	v8.551C423.282,20.995,426.871,24.585,431.299,24.585z"/>
<path d="M439.315,59.324v-8.551c0-4.427-3.589-8.017-8.017-8.017c-4.427,0-8.017,3.589-8.017,8.017v8.551
	c0,4.427,3.589,8.017,8.017,8.017C435.726,67.34,439.315,63.751,439.315,59.324z"/>
<path d="M464.969,33.67c0-4.427-3.589-8.017-8.017-8.017h-8.551c-4.427,0-8.017,3.589-8.017,8.017s3.589,8.017,8.017,8.017h8.551
	C461.379,41.687,464.969,38.098,464.969,33.67z"/>
<path d="M422.213,33.67c0-4.427-3.589-8.017-8.017-8.017h-8.551c-4.427,0-8.017,3.589-8.017,8.017s3.589,8.017,8.017,8.017h8.551
	C418.624,41.687,422.213,38.098,422.213,33.67z"/>
<path d="M72.15,119.716c-4.427,0-8.017,3.589-8.017,8.017v8.551c0,4.427,3.589,8.017,8.017,8.017s8.017-3.589,8.017-8.017v-8.551
	C80.167,123.305,76.578,119.716,72.15,119.716z"/>
<path d="M72.15,162.472c-4.427,0-8.017,3.589-8.017,8.017v8.551c0,4.427,3.589,8.017,8.017,8.017s8.017-3.589,8.017-8.017v-8.551
	C80.167,166.061,76.578,162.472,72.15,162.472z"/>
<path d="M97.804,145.37h-8.551c-4.427,0-8.017,3.589-8.017,8.017c0,4.427,3.589,8.017,8.017,8.017h8.551
	c4.427,0,8.017-3.589,8.017-8.017C105.82,148.959,102.231,145.37,97.804,145.37z"/>
<path d="M55.048,145.37h-8.551c-4.427,0-8.017,3.589-8.017,8.017c0,4.427,3.589,8.017,8.017,8.017h8.551
	c4.427,0,8.017-3.589,8.017-8.017C63.065,148.959,59.475,145.37,55.048,145.37z"/>
<path d="M439.85,239.432c-4.427,0-8.017,3.589-8.017,8.017V256c0,4.427,3.589,8.017,8.017,8.017c4.427,0,8.017-3.589,8.017-8.017
	v-8.551C447.866,243.021,444.277,239.432,439.85,239.432z"/>
<path d="M439.85,282.188c-4.427,0-8.017,3.589-8.017,8.017v8.551c0,4.427,3.589,8.017,8.017,8.017c4.427,0,8.017-3.589,8.017-8.017
	v-8.551C447.866,285.777,444.277,282.188,439.85,282.188z"/>
<path d="M465.503,265.086h-8.551c-4.427,0-8.017,3.589-8.017,8.017c0,4.427,3.589,8.017,8.017,8.017h8.551
	c4.427,0,8.017-3.589,8.017-8.017C473.52,268.675,469.931,265.086,465.503,265.086z"/>
<path d="M422.747,265.086h-8.551c-4.427,0-8.017,3.589-8.017,8.017c0,4.427,3.589,8.017,8.017,8.017h8.551
	c4.427,0,8.017-3.589,8.017-8.017C430.764,268.675,427.175,265.086,422.747,265.086z"/>
</svg>