<?xml version="1.0" encoding="iso-8859-1"?>
<!-- Uploaded to: SVG Repo, www.svgrepo.com, Generator: SVG Repo Mixer Tools -->
<svg version="1.1" id="Layer_1" xmlns="http://www.w3.org/2000/svg" xmlns:xlink="http://www.w3.org/1999/xlink" 
	 viewBox="0 0 512 512" xml:space="preserve">
<path style="fill:#48AEE2;" d="M256,512c-38.355,0-69.559-31.205-69.559-69.558c0-9.864,7.997-17.86,17.86-17.86h103.397
	c9.864,0,17.86,7.997,17.86,17.86C325.558,480.795,294.355,512,256,512z"/>
<path style="fill:#3797D3;" d="M307.698,424.581H256V512c38.355,0,69.558-31.205,69.558-69.558
	C325.558,432.577,317.563,424.581,307.698,424.581z"/>
<path style="fill:#8DC3E9;" d="M337.189,460.302H174.811c-9.864,0-17.86-7.997-17.86-17.86V309.304
	c0-13.868,15.205-22.488,27.111-15.278c44.057,26.672,99.783,26.694,143.878,0c11.913-7.212,27.11,1.417,27.11,15.278v133.138
	C355.049,452.306,347.053,460.302,337.189,460.302z"/>
<g>
	<path style="fill:#48AEE2;" d="M327.94,294.025c-22.043,13.345-46.993,20.012-71.94,20.012v146.264h81.189
		c9.864,0,17.86-7.997,17.86-17.86V309.304C355.049,295.442,339.851,286.814,327.94,294.025z"/>
	<rect x="156.946" y="375.26" style="fill:#48AEE2;" width="198.096" height="35.721"/>
</g>
<path style="fill:#FFE49C;" d="M165.561,324.582c-51.217-30.994-84.434-86.982-84.434-149.71C81.127,78.447,159.575,0,256,0
	s174.873,78.447,174.873,174.872c0,62.737-33.222,118.72-84.437,149.711C291.017,358.134,221.035,358.165,165.561,324.582z"/>
<g>
	<path style="fill:#FFD155;" d="M256,0v349.758c31.363,0,62.721-8.396,90.436-25.174c51.214-30.993,84.437-86.975,84.437-149.711
		C430.873,78.447,352.425,0,256,0z"/>
	<path style="fill:#FFD155;" d="M221.987,204.715c-9.864,0-17.86,7.997-17.86,17.86v119.325c11.593,3.594,23.564,5.97,35.721,7.093
		V222.576C239.847,212.712,231.85,204.715,221.987,204.715z"/>
</g>
<rect x="256" y="375.26" style="fill:#3797D3;" width="99.054" height="35.721"/>
<path style="fill:#FFBE00;" d="M290.013,204.715c-9.864,0-17.86,7.997-17.86,17.86v126.418c12.157-1.123,24.128-3.498,35.721-7.093
	V222.576C307.874,212.712,299.877,204.715,290.013,204.715z"/>
</svg>