<svg xmlns="http://www.w3.org/2000/svg" version="1.1" xmlns:xlink="http://www.w3.org/1999/xlink" xmlns:svgjs="http://svgjs.dev/svgjs" width="2000" height="1500" viewBox="0 0 2000 1500"><rect width="2000" height="1500" fill="#24204a"></rect><g transform="matrix(0.75,0,0,0.75,249.090909090909,606.454680955409)"><svg viewBox="0 0 396 76" data-background-color="#24204a" preserveAspectRatio="xMidYMid meet" height="383" width="2000" xmlns="http://www.w3.org/2000/svg" xmlns:xlink="http://www.w3.org/1999/xlink"><g id="tight-bounds" transform="matrix(1,0,0,1,0.2400000000000091,-0.021081819359721976)"><svg viewBox="0 0 395.52 76.04216363871946" height="76.04216363871946" width="395.52"><g><svg viewBox="0 0 402.44965779474967 77.37445068359375" height="76.04216363871946" width="395.52"><g><svg viewBox="0 0 402.44965779474967 77.37445068359375" height="77.37445068359375" width="402.44965779474967"><g id="textblocktransform"><svg viewBox="0 0 402.44965779474967 77.37445068359375" height="77.37445068359375" width="402.44965779474967" id="textblock"><g><svg viewBox="0 0 402.44965779474967 77.37445068359375" height="77.37445068359375" width="402.44965779474967"><g><svg><g></g><g></g></svg></g><g><svg><g></g><g><svg></svg></g></svg></g><g id="text-0"><svg viewBox="0 0 402.44965779474967 77.37445068359375" height="77.37445068359375" width="402.44965779474967"><g transform="matrix(1,0,0,1,0,20.315643310546875)"><svg width="97.265625" viewBox="3.32 -36.25 97.26 36.74" height="36.7431640625" data-palette-color="#ffffff"><path d="M21.63-3.81L21.63-3.81Q24.27-3.81 26.42-4.91 28.56-6.01 30.09-7.9 31.62-9.79 32.45-12.33 33.28-14.87 33.28-17.75L33.28-17.75Q33.28-20.8 32.36-23.4 31.45-26 29.83-27.91 28.22-29.81 26.03-30.88 23.83-31.96 21.26-31.96L21.26-31.96Q18.6-31.96 16.46-30.83 14.31-29.71 12.79-27.8 11.28-25.88 10.46-23.34 9.64-20.8 9.64-17.94L9.64-17.94Q9.64-14.89 10.55-12.3 11.45-9.72 13.05-7.84 14.65-5.96 16.85-4.88 19.04-3.81 21.63-3.81ZM20.8 0.49L20.8 0.49Q18.43 0.49 16.21-0.06 13.99-0.61 12.05-1.65 10.11-2.69 8.51-4.2 6.91-5.71 5.75-7.67 4.59-9.62 3.96-11.98 3.32-14.33 3.32-17.04L3.32-17.04Q3.32-19.85 4-22.36 4.69-24.88 5.92-27 7.15-29.13 8.89-30.85 10.62-32.57 12.71-33.76 14.79-34.96 17.19-35.61 19.58-36.25 22.17-36.25L22.17-36.25Q25.66-36.25 28.82-35.07 31.98-33.89 34.38-31.63 36.77-29.37 38.18-26.12 39.6-22.88 39.6-18.75L39.6-18.75Q39.6-15.97 38.93-13.45 38.26-10.94 37.04-8.8 35.82-6.67 34.11-4.94 32.4-3.22 30.31-2.01 28.22-0.81 25.82-0.16 23.41 0.49 20.8 0.49ZM46.99 0L46.99-25.88 51.78-25.88 52.61-21.46Q53.46-22.24 54.54-23.11 55.61-23.97 56.88-24.69 58.15-25.42 59.56-25.89 60.96-26.37 62.47-26.37L62.47-26.37Q64.26-26.37 65.71-25.7 67.16-25.02 68.19-23.82 69.21-22.61 69.77-20.92 70.33-19.24 70.33-17.24L70.33-17.24 70.33 0 64.4 0 64.4-16.53Q64.4-17.85 64.04-18.85 63.67-19.85 63.02-20.51 62.38-21.17 61.48-21.51 60.59-21.85 59.57-21.85L59.57-21.85Q57.76-21.85 56.15-20.92 54.54-20 52.9-18.48L52.9-18.48 52.9 0 46.99 0ZM99.65-5.32L99.65-2.37Q98.58-1.61 97.33-1.07 96.09-0.54 94.77-0.18 93.45 0.17 92.15 0.33 90.84 0.49 89.67 0.49L89.67 0.49Q86.96 0.49 84.63-0.34 82.29-1.17 80.57-2.78 78.85-4.39 77.88-6.75 76.9-9.11 76.9-12.16L76.9-12.16Q76.9-15.41 78-18.04 79.1-20.68 80.94-22.52 82.78-24.37 85.21-25.37 87.64-26.37 90.28-26.37L90.28-26.37Q92.48-26.37 94.37-25.65 96.26-24.93 97.64-23.51 99.02-22.09 99.8-19.97 100.58-17.85 100.58-15.04L100.58-15.04Q100.58-14.36 100.52-13.59 100.46-12.82 100.31-12.08L100.31-12.08 83.03-12.08Q83.03-10.11 83.72-8.59 84.42-7.08 85.69-6.07 86.96-5.05 88.74-4.53 90.52-4 92.67-4L92.67-4Q93.28-4 94.1-4.05 94.92-4.1 95.84-4.25 96.77-4.39 97.75-4.65 98.73-4.91 99.65-5.32L99.65-5.32ZM83.03-14.97L95.09-14.97Q95.09-16.75 94.64-18.09 94.18-19.43 93.4-20.34 92.62-21.24 91.58-21.69 90.55-22.14 89.35-22.14L89.35-22.14Q88.01-22.14 86.86-21.61 85.71-21.07 84.86-20.1 84-19.14 83.52-17.82 83.03-16.5 83.03-14.97L83.03-14.97Z" opacity="1" transform="matrix(1,0,0,1,0,0)" fill="#ffffff" class="undefined-yy-0"></path></svg></g><g><svg xmlns="http://www.w3.org/2000/svg" xmlns:xlink="http://www.w3.org/1999/xlink" version="1.1" x="111.879736328125" y="0" viewBox="0 3.367796960100228 100 93.26420303989977" enable-background="new 0 0 100 100" xml:space="preserve" height="77.37445068359375" width="82.96264607599964" class="icon-cg-0" data-fill-palette-color="accent" id="cg-0"><g fill="#8e88c1" data-fill-palette-color="accent"><path d="M35.125 72.973c0 0.942 0.761 1.705 1.703 1.705h15.826l-16.359 5.46c-0.899 0.292-1.381 1.265-1.089 2.153 0.241 0.722 0.913 1.173 1.622 1.173 0.178 0 0.365-0.032 0.544-0.085l26.336-8.785c0.795-0.262 1.288-1.066 1.15-1.894-0.136-0.825-0.847-1.433-1.684-1.433H36.827C35.886 71.268 35.125 72.029 35.125 72.973z" fill="#8e88c1" data-fill-palette-color="accent"></path><path d="M61.959 89.331c-0.029 0.031-3.981 3.89-11.953 3.89-4.3 0-7.426-1.107-9.394-2.144l23.094-7.698c0.9-0.303 1.38-1.275 1.089-2.164-0.306-0.899-1.267-1.382-2.167-1.077l-26.334 8.774c-0.566 0.188-0.994 0.659-1.129 1.233-0.137 0.577 0.04 1.183 0.459 1.6 0.199 0.199 4.998 4.887 14.381 4.887 9.37 0 14.172-4.688 14.372-4.887 0.669-0.668 0.669-1.756 0-2.414C63.707 88.662 62.629 88.662 61.959 89.331z" fill="#8e88c1" data-fill-palette-color="accent"></path><path d="M50.006 5.418c-15.471 0-28.051 12.581-28.051 28.04 0 7.771 4.182 13.984 7.865 19.456 2.844 4.213 5.305 7.854 5.305 11.284 0 0.941 0.761 1.704 1.703 1.704s1.716-0.763 1.716-1.704c0-4.476-2.868-8.713-5.89-13.199-3.587-5.313-7.289-10.804-7.289-17.541 0-13.575 11.055-24.63 24.642-24.63 13.577 0 24.63 11.056 24.63 24.63 0 6.737-3.713 12.227-7.289 17.541-3.023 4.486-5.878 8.724-5.878 13.199 0 0.941 0.762 1.704 1.704 1.704 0.941 0 1.706-0.763 1.706-1.704 0-3.43 2.457-7.071 5.301-11.284 3.683-5.472 7.866-11.684 7.866-19.456C78.047 17.999 65.463 5.418 50.006 5.418z" fill="#8e88c1" data-fill-palette-color="accent"></path><path d="M51.71 15.897c0-0.941-0.764-1.705-1.704-1.705-10.627 0-19.276 8.65-19.276 19.265 0 0.953 0.764 1.716 1.704 1.716 0.952 0 1.716-0.763 1.716-1.716 0-8.732 7.112-15.845 15.856-15.845C50.946 17.612 51.71 16.838 51.71 15.897z" fill="#8e88c1" data-fill-palette-color="accent"></path><path d="M20.584 14.203c0.304 0.219 0.66 0.324 1.005 0.324 0.533 0 1.046-0.24 1.38-0.701 0.554-0.763 0.386-1.83-0.376-2.385l-10.658-7.75c-0.764-0.554-1.83-0.377-2.385 0.387C8.996 4.832 9.164 5.897 9.927 6.463L20.584 14.203z" fill="#8e88c1" data-fill-palette-color="accent"></path><path d="M78.412 14.527c0.347 0 0.702-0.105 1.007-0.324l10.656-7.74c0.764-0.566 0.932-1.631 0.375-2.385-0.554-0.764-1.621-0.941-2.385-0.387l-10.658 7.75c-0.762 0.555-0.929 1.622-0.375 2.385C77.368 14.287 77.88 14.527 78.412 14.527z" fill="#8e88c1" data-fill-palette-color="accent"></path><path d="M98.297 31.753h-13.17c-0.951 0-1.714 0.763-1.714 1.704 0 0.953 0.763 1.716 1.714 1.716h13.17c0.939 0 1.703-0.763 1.703-1.716C100 32.517 99.236 31.753 98.297 31.753z" fill="#8e88c1" data-fill-palette-color="accent"></path><path d="M16.59 33.458c0-0.941-0.764-1.704-1.706-1.704H1.705C0.765 31.753 0 32.517 0 33.458c0 0.953 0.765 1.716 1.705 1.716h13.179C15.826 35.173 16.59 34.41 16.59 33.458z" fill="#8e88c1" data-fill-palette-color="accent"></path><path d="M79.419 52.724c-0.767-0.554-1.834-0.388-2.387 0.377-0.554 0.764-0.387 1.83 0.375 2.384l10.658 7.74c0.305 0.221 0.661 0.335 1.005 0.335 0.524 0 1.047-0.251 1.38-0.711 0.557-0.764 0.389-1.831-0.375-2.385L79.419 52.724z" fill="#8e88c1" data-fill-palette-color="accent"></path><path d="M20.584 52.724l-10.657 7.74c-0.764 0.554-0.931 1.621-0.377 2.385 0.337 0.46 0.857 0.711 1.38 0.711 0.355 0 0.701-0.114 1.005-0.335l10.658-7.74c0.763-0.554 0.93-1.62 0.376-2.384C22.414 52.336 21.347 52.17 20.584 52.724z" fill="#8e88c1" data-fill-palette-color="accent"></path></g></svg></g><g transform="matrix(1,0,0,1,209.45649373224964,18.801971435546875)"><svg width="192.99316406249997" viewBox="5.03 -37.77 192.97 38.260000000000005" height="38.2568359375" data-palette-color="#ffffff"><path d="M11.08-31.47L11.08 0 5.03 0 5.03-35.77 15.82-35.77Q18.9-35.77 21.42-35.02 23.95-34.28 25.77-32.85 27.59-31.42 28.59-29.35 29.59-27.27 29.59-24.58L29.59-24.58Q29.59-21.7 28.49-19.43 27.39-17.16 25.59-15.59 23.78-14.01 21.46-13.17 19.14-12.33 16.72-12.33L16.72-12.33Q16.41-12.33 16.05-12.35 15.7-12.38 15.21-12.45L15.21-12.45 15.58-16.5Q15.94-16.46 16.26-16.44 16.58-16.43 16.85-16.43L16.85-16.43Q18.31-16.43 19.53-16.92 20.75-17.41 21.64-18.36 22.53-19.31 23.03-20.69 23.54-22.07 23.54-23.88L23.54-23.88Q23.54-25.88 22.95-27.32 22.36-28.76 21.25-29.69 20.14-30.62 18.57-31.04 16.99-31.47 15.01-31.47L15.01-31.47 11.08-31.47ZM45.51 0.49L45.51 0.49Q42.45 0.49 40.12-0.54 37.79-1.56 36.2-3.31 34.62-5.05 33.8-7.35 32.98-9.64 32.98-12.21L32.98-12.21Q32.98-15.16 34.03-17.74 35.08-20.31 36.97-22.23 38.86-24.15 41.48-25.26 44.09-26.37 47.21-26.37L47.21-26.37Q50.27-26.37 52.61-25.34 54.95-24.32 56.54-22.56 58.13-20.8 58.95-18.49 59.76-16.19 59.76-13.62L59.76-13.62Q59.76-10.64 58.7-8.07 57.64-5.49 55.73-3.59 53.83-1.68 51.22-0.6 48.61 0.49 45.51 0.49ZM46.53-3.74L46.53-3.74Q48.09-3.74 49.39-4.38 50.68-5.03 51.61-6.19 52.54-7.35 53.05-8.96 53.56-10.57 53.56-12.52L53.56-12.52Q53.56-14.43 53.06-16.16 52.56-17.9 51.61-19.23 50.66-20.56 49.29-21.35 47.92-22.14 46.19-22.14L46.19-22.14Q44.6-22.14 43.31-21.48 42.01-20.83 41.1-19.65 40.18-18.48 39.67-16.86 39.16-15.23 39.16-13.31L39.16-13.31Q39.16-11.38 39.66-9.64 40.16-7.91 41.11-6.59 42.06-5.27 43.43-4.5 44.8-3.74 46.53-3.74ZM64.72-1.22L65.77-5.66 66.21-5.93Q67.16-5.42 68.2-5 69.23-4.59 70.26-4.31 71.28-4.03 72.26-3.88 73.24-3.74 74.09-3.74L74.09-3.74Q76.31-3.74 77.57-4.66 78.83-5.59 78.83-7.03L78.83-7.03Q78.83-8.01 78.25-8.64 77.68-9.28 76.74-9.73 75.8-10.18 74.6-10.52 73.41-10.86 72.15-11.24 70.89-11.62 69.7-12.11 68.5-12.6 67.56-13.35 66.62-14.11 66.05-15.2 65.47-16.28 65.47-17.87L65.47-17.87Q65.47-19.65 66.24-21.22 67.01-22.78 68.44-23.91 69.87-25.05 71.91-25.71 73.95-26.37 76.48-26.37L76.48-26.37Q77.12-26.37 77.96-26.32 78.8-26.27 79.72-26.16 80.63-26.05 81.56-25.88 82.49-25.71 83.3-25.44L83.3-25.44 82.22-21.07 81.68-20.75Q80.95-21.12 80.11-21.39 79.27-21.66 78.43-21.81 77.58-21.97 76.79-22.06 76-22.14 75.39-22.14L75.39-22.14Q73.24-22.14 72.03-21.29 70.82-20.43 70.82-18.99L70.82-18.99Q70.82-17.99 71.41-17.35 71.99-16.7 72.93-16.25 73.87-15.8 75.09-15.47 76.31-15.14 77.57-14.76 78.83-14.38 80.05-13.89 81.27-13.4 82.21-12.65 83.15-11.89 83.74-10.79 84.32-9.69 84.32-8.08L84.32-8.08Q84.32-6.27 83.54-4.7 82.76-3.13 81.32-1.98 79.88-0.83 77.85-0.17 75.83 0.49 73.36 0.49L73.36 0.49Q71.33 0.49 69.06 0.05 66.79-0.39 64.72-1.22L64.72-1.22ZM90.81 0L90.81-25.88 96.75-25.88 96.75 0 90.81 0ZM93.77-30.98L93.77-30.98Q92.99-30.98 92.34-31.24 91.69-31.49 91.22-31.93 90.74-32.37 90.48-32.98 90.23-33.59 90.23-34.3L90.23-34.3Q90.23-35.03 90.51-35.66 90.79-36.28 91.29-36.76 91.79-37.23 92.46-37.5 93.13-37.77 93.91-37.77L93.91-37.77Q94.67-37.77 95.31-37.5 95.94-37.23 96.4-36.78 96.87-36.33 97.14-35.71 97.4-35.08 97.4-34.38L97.4-34.38Q97.4-33.64 97.12-33.02 96.84-32.4 96.34-31.95 95.84-31.49 95.18-31.24 94.52-30.98 93.77-30.98ZM107.14-7.15L107.14-21.66 101.94-21.66 102.38-24.44Q104.31-24.93 105.47-25.54 106.63-26.15 107.4-27.04 108.17-27.93 108.74-29.21 109.32-30.49 110.07-32.32L110.07-32.32 112.91-32.32 112.91-25.88 122.21-25.88 121.16-21.66 113.08-21.66 113.08-8.33Q113.08-7.13 113.42-6.31 113.76-5.49 114.39-4.98 115.03-4.47 115.92-4.24 116.81-4 117.93-4L117.93-4Q119.01-4 120.07-4.2 121.13-4.39 122.08-4.76L122.08-4.76 122.08-1.78Q120.42-0.66 118.53-0.09 116.64 0.49 114.71 0.49L114.71 0.49Q111.03 0.49 109.08-1.51 107.14-3.52 107.14-7.15L107.14-7.15ZM128.75 0L128.75-25.88 134.68-25.88 134.68 0 128.75 0ZM131.7-30.98L131.7-30.98Q130.92-30.98 130.27-31.24 129.63-31.49 129.15-31.93 128.67-32.37 128.42-32.98 128.16-33.59 128.16-34.3L128.16-34.3Q128.16-35.03 128.44-35.66 128.72-36.28 129.22-36.76 129.72-37.23 130.4-37.5 131.07-37.77 131.85-37.77L131.85-37.77Q132.6-37.77 133.24-37.5 133.87-37.23 134.34-36.78 134.8-36.33 135.07-35.71 135.34-35.08 135.34-34.38L135.34-34.38Q135.34-33.64 135.06-33.02 134.78-32.4 134.28-31.95 133.78-31.49 133.12-31.24 132.46-30.98 131.7-30.98ZM153.82 0.49L153.82 0.49Q150.77 0.49 148.43-0.54 146.1-1.56 144.52-3.31 142.93-5.05 142.11-7.35 141.29-9.64 141.29-12.21L141.29-12.21Q141.29-15.16 142.34-17.74 143.39-20.31 145.29-22.23 147.18-24.15 149.79-25.26 152.4-26.37 155.53-26.37L155.53-26.37Q158.58-26.37 160.92-25.34 163.27-24.32 164.85-22.56 166.44-20.8 167.26-18.49 168.08-16.19 168.08-13.62L168.08-13.62Q168.08-10.64 167.01-8.07 165.95-5.49 164.05-3.59 162.14-1.68 159.53-0.6 156.92 0.49 153.82 0.49ZM154.84-3.74L154.84-3.74Q156.41-3.74 157.7-4.38 158.99-5.03 159.92-6.19 160.85-7.35 161.36-8.96 161.87-10.57 161.87-12.52L161.87-12.52Q161.87-14.43 161.37-16.16 160.87-17.9 159.92-19.23 158.97-20.56 157.6-21.35 156.24-22.14 154.5-22.14L154.5-22.14Q152.91-22.14 151.62-21.48 150.33-20.83 149.41-19.65 148.5-18.48 147.98-16.86 147.47-15.23 147.47-13.31L147.47-13.31Q147.47-11.38 147.97-9.64 148.47-7.91 149.42-6.59 150.38-5.27 151.74-4.5 153.11-3.74 154.84-3.74ZM174.67 0L174.67-25.88 179.45-25.88 180.28-21.46Q181.13-22.24 182.21-23.11 183.28-23.97 184.55-24.69 185.82-25.42 187.23-25.89 188.63-26.37 190.14-26.37L190.14-26.37Q191.93-26.37 193.38-25.7 194.83-25.02 195.86-23.82 196.88-22.61 197.44-20.92 198-19.24 198-17.24L198-17.24 198 0 192.07 0 192.07-16.53Q192.07-17.85 191.71-18.85 191.34-19.85 190.69-20.51 190.05-21.17 189.15-21.51 188.26-21.85 187.24-21.85L187.24-21.85Q185.43-21.85 183.82-20.92 182.21-20 180.57-18.48L180.57-18.48 180.57 0 174.67 0Z" opacity="1" transform="matrix(1,0,0,1,0,0)" fill="#ffffff" class="undefined-yy-1"></path></svg></g></svg></g></svg></g></svg></g></svg></g></svg></g><defs></defs></svg><rect width="395.52" height="76.04216363871946" fill="none" stroke="none" visibility="hidden"></rect></g></svg></g></svg>