<svg width="52" height="52" viewBox="0 0 52 52" fill="none" xmlns="http://www.w3.org/2000/svg">
<path d="M26 17.6722C24.9063 17.6692 23.8228 17.8823 22.8118 18.2995C21.8008 18.7167 20.8823 19.3297 20.109 20.1032C19.3358 20.8766 18.7231 21.7954 18.3063 22.8065C17.8894 23.8176 17.6766 24.9012 17.68 25.9949C17.6769 27.0882 17.89 28.1714 18.3071 29.182C18.7241 30.1927 19.3369 31.111 20.1101 31.884C20.8834 32.6569 21.8018 33.2694 22.8126 33.6862C23.8234 34.1029 24.9066 34.3157 26 34.3122C27.0931 34.3153 28.1761 34.1023 29.1866 33.6854C30.1971 33.2685 31.1152 32.656 31.8882 31.883C32.6611 31.1101 33.2737 30.1919 33.6906 29.1814C34.1074 28.1709 34.3205 27.088 34.3174 25.9949C34.3212 24.9013 34.1086 23.8178 33.6921 22.8067C33.2755 21.7956 32.663 20.8768 31.89 20.1033C31.117 19.3298 30.1986 18.7168 29.1878 18.2996C28.1769 17.8824 27.0935 17.6692 26 17.6722ZM26 31.3223C24.5864 31.3223 23.2307 30.7607 22.2311 29.7611C21.2315 28.7616 20.67 27.4059 20.67 25.9922C20.67 24.5786 21.2315 23.2229 22.2311 22.2234C23.2307 21.2238 24.5864 20.6622 26 20.6622C27.4136 20.6622 28.7693 21.2238 29.7689 22.2234C30.7684 23.2229 31.33 24.5786 31.33 25.9922C31.33 27.4059 30.7684 28.7616 29.7689 29.7611C28.7693 30.7607 27.4136 31.3223 26 31.3223ZM39 13C38.1888 12.1888 36.7042 12.3552 35.6902 13.3692C34.6762 14.3858 34.5124 15.8626 35.3236 16.6764C36.1348 17.4902 37.6168 17.3264 38.6334 16.3098C39.6474 15.2958 39.8112 13.8112 39 13ZM13.3692 35.6954C12.3526 36.7094 12.1888 38.1889 13 39C13.8112 39.8112 15.2932 39.6501 16.3098 38.6335C17.3264 37.6169 17.4902 36.1349 16.679 35.3237C15.8678 34.5125 14.3832 34.6789 13.3692 35.6954ZM13 13C12.1888 13.8112 12.3526 15.2958 13.3666 16.3098C14.3832 17.3264 15.8652 17.4876 16.6764 16.6764C17.4876 15.8652 17.3238 14.3806 16.3072 13.3666C15.2958 12.3552 13.8112 12.1888 13 13ZM35.6902 38.6283C36.7042 39.6449 38.1862 39.8112 39 39C39.8138 38.1889 39.6474 36.7043 38.6308 35.6877C37.6142 34.671 36.1348 34.5098 35.321 35.3211C34.5072 36.1322 34.6762 37.6143 35.6902 38.6283ZM26 12.9948C27.1466 12.9948 28.08 11.8326 28.08 10.3948C28.0774 8.95705 27.1466 7.80005 26 7.80005C24.8508 7.80005 23.9174 8.95705 23.9174 10.3948C23.9174 11.8326 24.8482 12.9948 26 12.9948ZM26 44.2001C27.1466 44.2001 28.08 43.0378 28.08 41.6001C28.08 40.1623 27.1492 39.0053 26.0026 39.0053C24.8534 39.0053 23.92 40.1623 23.92 41.6001C23.9174 43.0378 24.8482 44.2001 26 44.2001ZM13 26C13 24.8534 11.83 23.92 10.3922 23.92C8.95439 23.92 7.79999 24.8534 7.79999 26C7.79999 27.1493 8.95439 28.08 10.3922 28.08C11.83 28.08 13 27.1493 13 26ZM44.2 26C44.2 24.8534 43.0352 23.92 41.5974 23.92C40.1596 23.92 39 24.8534 39 26C39 27.1493 40.1596 28.08 41.5974 28.08C43.0352 28.08 44.2 27.1493 44.2 26Z" fill="white"/>
</svg>
