<svg width="52" height="52" viewBox="0 0 38 38" fill="none" xmlns="http://www.w3.org/2000/svg">
<path d="M19 10.6722C17.9063 10.6692 16.8228 10.8823 15.8118 11.2995C14.8008 11.7167 13.8823 12.3297 13.1091 13.1032C12.3358 13.8766 11.7232 14.7954 11.3063 15.8065C10.8894 16.8176 10.6766 17.9012 10.68 18.9949C10.6769 20.0882 10.89 21.1714 11.3071 22.182C11.7242 23.1927 12.3369 24.111 13.1102 24.884C13.8834 25.6569 14.8018 26.2694 15.8126 26.6862C16.8234 27.1029 17.9067 27.3157 19 27.3122C20.0931 27.3153 21.1761 27.1023 22.1866 26.6854C23.1971 26.2685 24.1152 25.656 24.8882 24.883C25.6612 24.1101 26.2737 23.1919 26.6906 22.1814C27.1075 21.1709 27.3205 20.088 27.3174 18.9949C27.3212 17.9013 27.1087 16.8178 26.6921 15.8067C26.2755 14.7956 25.6631 13.8768 24.89 13.1033C24.117 12.3298 23.1987 11.7168 22.1878 11.2996C21.177 10.8824 20.0936 10.6692 19 10.6722ZM19 24.3223C17.5864 24.3223 16.2307 23.7607 15.2311 22.7611C14.2316 21.7616 13.67 20.4059 13.67 18.9922C13.67 17.5786 14.2316 16.2229 15.2311 15.2234C16.2307 14.2238 17.5864 13.6622 19 13.6622C20.4136 13.6622 21.7693 14.2238 22.7689 15.2234C23.7685 16.2229 24.33 17.5786 24.33 18.9922C24.33 20.4059 23.7685 21.7616 22.7689 22.7611C21.7693 23.7607 20.4136 24.3223 19 24.3223ZM32 6.00005C31.1888 5.18885 29.7042 5.35525 28.6902 6.36925C27.6762 7.38585 27.5124 8.86265 28.3236 9.67645C29.1348 10.4902 30.6168 10.3264 31.6334 9.30985C32.6474 8.29585 32.8112 6.81125 32 6.00005ZM6.36922 28.6954C5.35262 29.7094 5.18882 31.1889 6.00002 32C6.81122 32.8112 8.29322 32.6501 9.30982 31.6335C10.3264 30.6169 10.4902 29.1349 9.67902 28.3237C8.86782 27.5125 7.38322 27.6789 6.36922 28.6954ZM6.00002 6.00005C5.18882 6.81125 5.35262 8.29585 6.36662 9.30985C7.38322 10.3264 8.86522 10.4876 9.67642 9.67645C10.4876 8.86525 10.3238 7.38065 9.30722 6.36665C8.29582 5.35525 6.81122 5.18885 6.00002 6.00005ZM28.6902 31.6283C29.7042 32.6449 31.1862 32.8112 32 32C32.8138 31.1889 32.6474 29.7043 31.6308 28.6877C30.6142 27.671 29.1348 27.5098 28.321 28.3211C27.5072 29.1322 27.6762 30.6143 28.6902 31.6283ZM19 5.99485C20.1466 5.99485 21.08 4.83265 21.08 3.39485C21.0774 1.95705 20.1466 0.800049 19 0.800049C17.8508 0.800049 16.9174 1.95705 16.9174 3.39485C16.9174 4.83265 17.8482 5.99485 19 5.99485ZM19 37.2001C20.1466 37.2001 21.08 36.0378 21.08 34.6001C21.08 33.1623 20.1492 32.0053 19.0026 32.0053C17.8534 32.0053 16.92 33.1623 16.92 34.6001C16.9174 36.0378 17.8482 37.2001 19 37.2001ZM6.00002 19C6.00002 17.8534 4.83002 16.92 3.39222 16.92C1.95442 16.92 0.800018 17.8534 0.800018 19C0.800018 20.1493 1.95442 21.08 3.39222 21.08C4.83002 21.08 6.00002 20.1493 6.00002 19ZM37.2 19C37.2 17.8534 36.0352 16.92 34.5974 16.92C33.1596 16.92 32 17.8534 32 19C32 20.1493 33.1596 21.08 34.5974 21.08C36.0352 21.08 37.2 20.1493 37.2 19Z" fill="#8E88C1"/>
</svg>
